<svg width="87" height="30" viewBox="0 0 87 30" fill="none" xmlns="http://www.w3.org/2000/svg">
<path d="M42.4999 6.49985C42.4823 8.3551 42.5258 9.3367 42.5936 9.81175C42.6817 10.4284 42.4231 9.48391 41.808 9.58252C38.4671 10.1181 36.8996 13.1596 36.8005 16.6052C36.6913 10.4349 36 -3 38 1C40 5 42.5558 0.636017 42.4999 6.49985Z" fill="url(#paint0_linear_3301_2951)"/>
<ellipse cx="44.1175" cy="16.6411" rx="8.0021" ry="8.17236" transform="rotate(0.815131 44.1175 16.6411)" fill="url(#paint1_linear_3301_2951)"/>
<path d="M53.568 23.0023C53.4613 23.0023 53.3707 22.9703 53.296 22.9063C53.232 22.8317 53.2 22.741 53.2 22.6343V12.0103C53.2 11.9037 53.232 11.8183 53.296 11.7543C53.3707 11.6797 53.4613 11.6423 53.568 11.6423H54.32C54.4373 11.6423 54.528 11.6797 54.592 11.7543C54.656 11.8183 54.688 11.9037 54.688 12.0103V22.6343C54.688 22.741 54.656 22.8317 54.592 22.9063C54.528 22.9703 54.4373 23.0023 54.32 23.0023H53.568ZM60.4826 23.1623C59.672 23.1623 58.9946 23.0077 58.4506 22.6983C57.9066 22.389 57.4906 21.9623 57.2026 21.4183C56.9146 20.8637 56.7546 20.2343 56.7226 19.5303C56.712 19.349 56.7066 19.1197 56.7066 18.8423C56.7066 18.5543 56.712 18.325 56.7226 18.1543C56.7546 17.4397 56.9146 16.8103 57.2026 16.2663C57.5013 15.7223 57.9226 15.2957 58.4666 14.9863C59.0106 14.677 59.6826 14.5223 60.4826 14.5223C61.2826 14.5223 61.9546 14.677 62.4986 14.9863C63.0426 15.2957 63.4586 15.7223 63.7466 16.2663C64.0453 16.8103 64.2106 17.4397 64.2426 18.1543C64.2533 18.325 64.2586 18.5543 64.2586 18.8423C64.2586 19.1197 64.2533 19.349 64.2426 19.5303C64.2106 20.2343 64.0506 20.8637 63.7626 21.4183C63.4746 21.9623 63.0586 22.389 62.5146 22.6983C61.9706 23.0077 61.2933 23.1623 60.4826 23.1623ZM60.4826 21.9303C61.144 21.9303 61.672 21.7223 62.0666 21.3063C62.4613 20.8797 62.6746 20.261 62.7066 19.4503C62.7173 19.2903 62.7226 19.0877 62.7226 18.8423C62.7226 18.597 62.7173 18.3943 62.7066 18.2343C62.6746 17.4237 62.4613 16.8103 62.0666 16.3943C61.672 15.9677 61.144 15.7543 60.4826 15.7543C59.8213 15.7543 59.288 15.9677 58.8826 16.3943C58.488 16.8103 58.28 17.4237 58.2586 18.2343C58.248 18.3943 58.2426 18.597 58.2426 18.8423C58.2426 19.0877 58.248 19.2903 58.2586 19.4503C58.28 20.261 58.488 20.8797 58.8826 21.3063C59.288 21.7223 59.8213 21.9303 60.4826 21.9303ZM69.6701 26.5223C68.9448 26.5223 68.3475 26.4263 67.8781 26.2343C67.4195 26.0423 67.0568 25.8077 66.7901 25.5303C66.5341 25.2637 66.3475 24.9917 66.2301 24.7143C66.1235 24.4477 66.0648 24.2343 66.0541 24.0743C66.0435 23.9677 66.0755 23.877 66.1501 23.8023C66.2355 23.7277 66.3261 23.6903 66.4221 23.6903H67.1901C67.2861 23.6903 67.3661 23.7117 67.4301 23.7543C67.4941 23.797 67.5475 23.8877 67.5901 24.0263C67.6541 24.1863 67.7501 24.3623 67.8781 24.5543C68.0061 24.757 68.2035 24.9277 68.4701 25.0663C68.7368 25.2157 69.1101 25.2903 69.5901 25.2903C70.0915 25.2903 70.5128 25.221 70.8541 25.0823C71.1955 24.9543 71.4515 24.7197 71.6221 24.3783C71.8035 24.0477 71.8941 23.589 71.8941 23.0023V21.9143C71.6381 22.245 71.3021 22.5223 70.8861 22.7463C70.4701 22.9597 69.9475 23.0663 69.3181 23.0663C68.7208 23.0663 68.2088 22.965 67.7821 22.7623C67.3555 22.549 67.0035 22.2663 66.7261 21.9143C66.4595 21.5517 66.2568 21.141 66.1181 20.6823C65.9901 20.2237 65.9155 19.7437 65.8941 19.2423C65.8835 18.9437 65.8835 18.6503 65.8941 18.3623C65.9155 17.861 65.9901 17.381 66.1181 16.9223C66.2568 16.4637 66.4595 16.053 66.7261 15.6903C67.0035 15.3277 67.3555 15.045 67.7821 14.8423C68.2088 14.629 68.7208 14.5223 69.3181 14.5223C69.9581 14.5223 70.4861 14.645 70.9021 14.8903C71.3288 15.125 71.6755 15.413 71.9421 15.7543V15.0663C71.9421 14.9597 71.9741 14.869 72.0381 14.7943C72.1128 14.7197 72.2035 14.6823 72.3101 14.6823H73.0461C73.1528 14.6823 73.2435 14.7197 73.3181 14.7943C73.3928 14.869 73.4301 14.9597 73.4301 15.0663V22.8263C73.4301 23.541 73.3075 24.1757 73.0621 24.7303C72.8275 25.285 72.4328 25.7223 71.8781 26.0423C71.3341 26.3623 70.5981 26.5223 69.6701 26.5223ZM69.6381 21.7863C70.1715 21.7863 70.5981 21.6637 70.9181 21.4183C71.2488 21.173 71.4888 20.8637 71.6381 20.4903C71.7981 20.117 71.8835 19.7383 71.8941 19.3543C71.9048 19.205 71.9101 19.0237 71.9101 18.8103C71.9101 18.5863 71.9048 18.3997 71.8941 18.2503C71.8835 17.8663 71.7981 17.4877 71.6381 17.1143C71.4888 16.741 71.2488 16.4317 70.9181 16.1863C70.5981 15.941 70.1715 15.8183 69.6381 15.8183C69.1048 15.8183 68.6781 15.941 68.3581 16.1863C68.0381 16.421 67.8088 16.7357 67.6701 17.1303C67.5315 17.5143 67.4515 17.9303 67.4301 18.3783C67.4195 18.6557 67.4195 18.9383 67.4301 19.2263C67.4515 19.6743 67.5315 20.0957 67.6701 20.4903C67.8088 20.8743 68.0381 21.189 68.3581 21.4343C68.6781 21.669 69.1048 21.7863 69.6381 21.7863ZM78.689 23.1623C78.0917 23.1623 77.5797 23.0877 77.153 22.9383C76.7263 22.789 76.3797 22.6077 76.113 22.3943C75.8463 22.181 75.6437 21.9677 75.505 21.7543C75.377 21.541 75.3077 21.3703 75.297 21.2423C75.2863 21.125 75.3237 21.0343 75.409 20.9703C75.4943 20.9063 75.5797 20.8743 75.665 20.8743H76.369C76.433 20.8743 76.481 20.885 76.513 20.9063C76.5557 20.917 76.609 20.9597 76.673 21.0343C76.8117 21.1837 76.9663 21.333 77.137 21.4823C77.3077 21.6317 77.5157 21.7543 77.761 21.8503C78.017 21.9463 78.3317 21.9943 78.705 21.9943C79.249 21.9943 79.697 21.893 80.049 21.6903C80.401 21.477 80.577 21.1677 80.577 20.7623C80.577 20.4957 80.5023 20.2823 80.353 20.1223C80.2143 19.9623 79.9583 19.8183 79.585 19.6903C79.2223 19.5623 78.721 19.429 78.081 19.2903C77.441 19.141 76.9343 18.9597 76.561 18.7463C76.1877 18.5223 75.921 18.261 75.761 17.9623C75.601 17.653 75.521 17.3063 75.521 16.9223C75.521 16.5277 75.6383 16.149 75.873 15.7863C76.1077 15.413 76.449 15.109 76.897 14.8743C77.3557 14.6397 77.9263 14.5223 78.609 14.5223C79.1637 14.5223 79.6383 14.5917 80.033 14.7303C80.4277 14.869 80.753 15.045 81.009 15.2583C81.265 15.461 81.457 15.6637 81.585 15.8663C81.713 16.069 81.7823 16.2397 81.793 16.3783C81.8037 16.485 81.7717 16.5757 81.697 16.6503C81.6223 16.7143 81.537 16.7463 81.441 16.7463H80.769C80.6943 16.7463 80.6303 16.7303 80.577 16.6983C80.5343 16.6663 80.4917 16.629 80.449 16.5863C80.3423 16.4477 80.2143 16.309 80.065 16.1703C79.9263 16.0317 79.7397 15.9197 79.505 15.8343C79.281 15.7383 78.9823 15.6903 78.609 15.6903C78.0757 15.6903 77.6757 15.8023 77.409 16.0263C77.1423 16.2503 77.009 16.533 77.009 16.8743C77.009 17.077 77.0677 17.2583 77.185 17.4183C77.3023 17.5783 77.5263 17.7223 77.857 17.8503C78.1877 17.9783 78.6783 18.117 79.329 18.2663C80.033 18.405 80.5877 18.5917 80.993 18.8263C81.3983 19.061 81.6863 19.333 81.857 19.6423C82.0277 19.9517 82.113 20.309 82.113 20.7143C82.113 21.1623 81.9797 21.573 81.713 21.9463C81.457 22.3197 81.073 22.6183 80.561 22.8423C80.0597 23.0557 79.4357 23.1623 78.689 23.1623Z" fill="#D8DBE3"/>
<path d="M84.2213 23.0023C84.1146 23.0023 84.0239 22.9703 83.9493 22.9063C83.8853 22.8317 83.8533 22.741 83.8533 22.6343V21.4823C83.8533 21.3757 83.8853 21.2903 83.9493 21.2263C84.0239 21.1517 84.1146 21.1143 84.2213 21.1143H85.3733C85.4799 21.1143 85.5653 21.1517 85.6293 21.2263C85.7039 21.2903 85.7413 21.3757 85.7413 21.4823V22.6343C85.7413 22.741 85.7039 22.8317 85.6293 22.9063C85.5653 22.9703 85.4799 23.0023 85.3733 23.0023H84.2213Z" fill="#1B69D2"/>
<path d="M1.76 23.0023C1.64267 23.0023 1.552 22.9703 1.488 22.9063C1.424 22.8317 1.392 22.741 1.392 22.6343V12.1703C1.392 12.0637 1.424 11.9783 1.488 11.9143C1.552 11.8397 1.64267 11.8023 1.76 11.8023H2.608C2.71467 11.8023 2.8 11.8397 2.864 11.9143C2.928 11.9783 2.96 12.0637 2.96 12.1703V21.6103H8.288C8.40533 21.6103 8.496 21.6477 8.56 21.7223C8.624 21.7863 8.656 21.877 8.656 21.9943V22.6343C8.656 22.741 8.624 22.8317 8.56 22.9063C8.496 22.9703 8.40533 23.0023 8.288 23.0023H1.76Z" fill="#1B69D2"/>
<path d="M13.3398 23.1623C12.2411 23.1623 11.3664 22.8263 10.7158 22.1543C10.0651 21.4717 9.70775 20.5437 9.64375 19.3703C9.63308 19.2317 9.62775 19.0557 9.62775 18.8423C9.62775 18.6183 9.63308 18.437 9.64375 18.2983C9.68642 17.541 9.86242 16.8797 10.1718 16.3143C10.4811 15.7383 10.9024 15.2957 11.4358 14.9863C11.9798 14.677 12.6144 14.5223 13.3398 14.5223C14.1504 14.5223 14.8278 14.693 15.3718 15.0343C15.9264 15.3757 16.3478 15.861 16.6358 16.4903C16.9238 17.1197 17.0677 17.8557 17.0677 18.6983V18.9703C17.0677 19.0877 17.0304 19.1783 16.9558 19.2423C16.8918 19.3063 16.8064 19.3383 16.6998 19.3383H11.1638C11.1638 19.349 11.1638 19.3703 11.1638 19.4023C11.1638 19.4343 11.1638 19.461 11.1638 19.4823C11.1851 19.9197 11.2811 20.3303 11.4518 20.7143C11.6224 21.0877 11.8678 21.3917 12.1878 21.6263C12.5078 21.861 12.8918 21.9783 13.3398 21.9783C13.7238 21.9783 14.0438 21.9197 14.2998 21.8023C14.5558 21.685 14.7638 21.557 14.9238 21.4183C15.0838 21.269 15.1904 21.157 15.2438 21.0823C15.3398 20.9437 15.4144 20.8637 15.4678 20.8423C15.5211 20.8103 15.6064 20.7943 15.7238 20.7943H16.4918C16.5984 20.7943 16.6838 20.8263 16.7478 20.8903C16.8224 20.9437 16.8544 21.0237 16.8438 21.1303C16.8331 21.2903 16.7478 21.4877 16.5878 21.7223C16.4278 21.9463 16.1984 22.1703 15.8998 22.3943C15.6011 22.6183 15.2384 22.805 14.8118 22.9543C14.3851 23.093 13.8944 23.1623 13.3398 23.1623ZM11.1638 18.2343H15.5478V18.1863C15.5478 17.7063 15.4571 17.2797 15.2758 16.9063C15.1051 16.533 14.8544 16.2397 14.5238 16.0263C14.1931 15.8023 13.7984 15.6903 13.3398 15.6903C12.8811 15.6903 12.4864 15.8023 12.1558 16.0263C11.8358 16.2397 11.5904 16.533 11.4198 16.9063C11.2491 17.2797 11.1638 17.7063 11.1638 18.1863V18.2343ZM22.3889 23.1623C21.5782 23.1623 20.9009 23.0077 20.3569 22.6983C19.8129 22.389 19.3969 21.9623 19.1089 21.4183C18.8209 20.8637 18.6609 20.2343 18.6289 19.5303C18.6182 19.349 18.6129 19.1197 18.6129 18.8423C18.6129 18.5543 18.6182 18.325 18.6289 18.1543C18.6609 17.4397 18.8209 16.8103 19.1089 16.2663C19.4075 15.7223 19.8289 15.2957 20.3729 14.9863C20.9169 14.677 21.5889 14.5223 22.3889 14.5223C23.1889 14.5223 23.8609 14.677 24.4049 14.9863C24.9489 15.2957 25.3649 15.7223 25.6529 16.2663C25.9515 16.8103 26.1169 17.4397 26.1489 18.1543C26.1595 18.325 26.1649 18.5543 26.1649 18.8423C26.1649 19.1197 26.1595 19.349 26.1489 19.5303C26.1169 20.2343 25.9569 20.8637 25.6689 21.4183C25.3809 21.9623 24.9649 22.389 24.4209 22.6983C23.8769 23.0077 23.1995 23.1623 22.3889 23.1623ZM22.3889 21.9303C23.0502 21.9303 23.5782 21.7223 23.9729 21.3063C24.3675 20.8797 24.5809 20.261 24.6129 19.4503C24.6235 19.2903 24.6289 19.0877 24.6289 18.8423C24.6289 18.597 24.6235 18.3943 24.6129 18.2343C24.5809 17.4237 24.3675 16.8103 23.9729 16.3943C23.5782 15.9677 23.0502 15.7543 22.3889 15.7543C21.7275 15.7543 21.1942 15.9677 20.7889 16.3943C20.3942 16.8103 20.1862 17.4237 20.1649 18.2343C20.1542 18.3943 20.1489 18.597 20.1489 18.8423C20.1489 19.0877 20.1542 19.2903 20.1649 19.4503C20.1862 20.261 20.3942 20.8797 20.7889 21.3063C21.1942 21.7223 21.7275 21.9303 22.3889 21.9303Z" fill="#D8DBE3"/>
<defs>
<linearGradient id="paint0_linear_3301_2951" x1="39.1797" y1="5.63632" x2="41.2344" y2="13.0593" gradientUnits="userSpaceOnUse">
<stop stop-color="#5390E3"/>
<stop offset="1" stop-color="#1357B3"/>
</linearGradient>
<linearGradient id="paint1_linear_3301_2951" x1="50.9764" y1="9.95461" x2="37.2858" y2="23.4639" gradientUnits="userSpaceOnUse">
<stop stop-color="#5390E3"/>
<stop offset="1" stop-color="#1357B3"/>
</linearGradient>
</defs>
</svg>
